<!-- Generator: Adobe Illustrator 24.0.3, SVG Export Plug-In  -->
<svg version="1.1" xmlns="http://www.w3.org/2000/svg" xmlns:xlink="http://www.w3.org/1999/xlink" x="0px" y="0px" width="49.88px"
	 height="50px" viewBox="0 0 49.88 50" style="enable-background:new 0 0 49.88 50;" xml:space="preserve">
<style type="text/css">
	.st0{opacity:0.12;}
	.st1{fill:#FFC107;}
	.st2{fill:#FF3D00;}
	.st3{fill:#4CAF50;}
	.st4{fill:#1976D2;}
</style>
<defs>
</defs>
<g id="G_Icon_Background_1_" transform="translate(-4 -4)" class="st0">
	<path id="Trazado_45_1_" class="st1" d="M53.39,24.1h-2.01V24h-22.5v10h14.13c-2.75,7.82-11.33,11.93-19.15,9.18
		s-11.93-11.33-9.18-19.15s11.33-11.93,19.15-9.18c1.84,0.65,3.54,1.65,5,2.95l7.07-7.07c-10.1-9.37-25.88-8.77-35.25,1.33
		s-8.77,25.88,1.33,35.25s25.88,8.77,35.25-1.33C52.68,40.1,54.98,31.96,53.39,24.1z"/>
	<path id="Trazado_46_1_" class="st2" d="M6.76,17.37l8.22,6.02c3.08-7.67,11.79-11.39,19.46-8.31c1.61,0.65,3.1,1.57,4.39,2.73
		l7.07-7.07C35.84,1.32,20.05,1.84,10.64,11.9C9.11,13.54,7.8,15.38,6.76,17.37z"/>
	<path id="Trazado_47_1_" class="st3" d="M28.88,54c6.2,0,12.18-2.31,16.76-6.49l-7.74-6.55c-6.59,4.99-15.97,3.7-20.96-2.89
		c-0.92-1.22-1.65-2.57-2.17-4.01l-8.15,6.28C10.89,48.72,19.49,54,28.88,54z"/>
	<path id="Trazado_48_1_" class="st4" d="M53.39,24.1h-2.01V24h-22.5v10h14.13c-0.99,2.77-2.76,5.19-5.11,6.96l0,0l7.74,6.55
		c5.32-4.67,8.33-11.43,8.24-18.51C53.88,27.36,53.72,25.72,53.39,24.1z"/>
</g>
<g id="G_Icon_1_" transform="translate(1 1)">
	<path id="Trazado_45-2_1_" class="st1" d="M43.49,20.08h-1.61V20h-18v8h11.3c-2.2,6.26-9.06,9.54-15.32,7.34
		c-6.26-2.2-9.54-9.06-7.34-15.32s9.06-9.54,15.32-7.34c1.47,0.52,2.83,1.32,4,2.36l5.66-5.66c-8.08-7.49-20.7-7.02-28.2,1.06
		s-7.02,20.7,1.06,28.2s20.7,7.02,28.2-1.06C42.91,32.88,44.75,26.37,43.49,20.08L43.49,20.08z"/>
	<path id="Trazado_46-2_1_" class="st2" d="M6.18,14.69l6.57,4.82c2.46-6.14,9.44-9.11,15.57-6.65c1.29,0.52,2.48,1.25,3.51,2.18
		l5.66-5.66c-8.05-7.53-20.68-7.11-28.21,0.94C8.06,11.64,7.02,13.11,6.18,14.69z"/>
	<path id="Trazado_47-2_1_" class="st3" d="M23.88,44c4.96,0,9.74-1.85,13.41-5.19l-6.19-5.24c-5.27,3.99-12.77,2.96-16.77-2.31
		c-0.74-0.97-1.32-2.05-1.73-3.21l-6.52,5.02C9.49,39.78,16.37,44,23.88,44z"/>
	<path id="Trazado_48-2_1_" class="st4" d="M43.49,20.08h-1.61V20h-18v8h11.3c-0.79,2.22-2.21,4.15-4.09,5.57l0,0l6.19,5.24
		c4.26-3.73,6.67-9.14,6.6-14.81C43.88,22.69,43.75,21.37,43.49,20.08z"/>
</g>
</svg>