<!-- Generator: Adobe Illustrator 24.0.3, SVG Export Plug-In  -->
<svg version="1.1" xmlns="http://www.w3.org/2000/svg" xmlns:xlink="http://www.w3.org/1999/xlink" x="0px" y="0px"
	 width="246.57px" height="166.56px" viewBox="0 0 246.57 166.56" style="enable-background:new 0 0 246.57 166.56;"
	 xml:space="preserve">
<style type="text/css">
	.st0{clip-path:url(#SVGID_2_);}
	.st1{fill:#FFFFFF;stroke:#FFFFFF;stroke-miterlimit:10;}
	.st2{fill:#FFFFFF;}
	.st3{fill:#1E5E92;}
	.st4{fill:#F4C93B;}
	.st5{fill:#CACACA;}
	.st6{fill:#454F63;}
	.st7{fill:#E64042;}
	.st8{clip-path:url(#SVGID_4_);}
</style>
<defs>
</defs>
<g id="Grupo_68_1_" transform="translate(-75.999 -332)">
	<g id="Grupo_48_1_" transform="translate(-1956.756 -820.144)">
		<g id="Grupo_44_1_" transform="translate(2032.755 1152.144)">
			<g id="Grupo_54_1_">
				<g>
					<defs>
						<ellipse id="SVGID_1_" cx="59.12" cy="36.23" rx="35.91" ry="35.74"/>
					</defs>
					<clipPath id="SVGID_2_">
						<use xlink:href="#SVGID_1_"  style="overflow:visible;"/>
					</clipPath>
					<g id="Grupo_53_1_" class="st0">
						<g id="Grupo_43_1_" transform="translate(-23.206)">
							<ellipse id="Elipse_133_1_" class="st1" cx="82.32" cy="36.23" rx="35.91" ry="35.74"/>
							<g id="Grupo_42_1_" transform="translate(0 7.651)">
								<path id="Trazado_702_1_" class="st2" d="M56.89,30.51l4.1-6.33c2.79-1.08,5.74-1.7,8.73-1.85
									c4.15-0.02-5.64,4.68-5.64,4.68L56.89,30.51z"/>
								<path id="Trazado_703_1_" class="st3" d="M43.07,95.22L46,91.85c0.56-0.73,1.08-1.48,1.68-2.17
									C53.14,83.45,58.94,77.47,64,70.94c6.85-8.83,9.3-19.13,8.49-30.1c-0.33-4.44-2.27-8.33-6.79-10.09
									c-4.37-1.7-7.75,0.56-10.74,3.43c-10.38,9.7-18.1,21.9-22.43,35.43c-0.87,2.8-1.81,5.39-2.61,8.21
									c0.19,0.09-1.8,4.13-1.61,4.21c1.45-1.2,10.11-11.8,11.56-13.01C34.6,75.15,26.36,89.9,26.94,97.05
									c0.78-0.71,6.62-8.29,7.37-8.97c-0.81,2.21-7.04,11.05-7.76,13.12s-2.74,7.55-3.35,10.25c0.87-0.9,3.04-4.67,3.52-5.11
									c0.43-0.4,5.32-6.21,5.78-6.59c-3.19,5.15-8.92,16.16-9.3,22c0.27-0.17,0.49-0.41,0.64-0.7
									c4.32-7.61,9.35-14.81,15.02-21.48C40.16,98.04,41.66,96.67,43.07,95.22z"/>
								<path id="Trazado_704_1_" class="st4" d="M62.81,23.99c-0.16,0.1-0.34,0.17-0.52,0.23c-1.5,1.68-3.02,3.33-4.51,5.03
									c-0.32,0.4-0.61,0.82-0.88,1.26c0.64-0.15,1.24-0.42,1.78-0.79c4.32-2.57,8.71-2,11.77,1.94c1.47,1.92,2.57,4.1,3.24,6.42
									c1.68,6.44,1.35,13.23-0.94,19.47c-3.21,9.73-9.43,17.61-16.47,24.96c-1.85,1.93-3.84,3.72-5.77,5.57
									c1.64,0.03,3.28-0.16,4.88-0.56c13.22-3.1,23.47-9.78,28.61-22.6c2.38-5.94,4.61-12.35,3.73-18.46
									c-0.75-4.15-1.21-7.97-3.22-11.81C80.54,27.09,71.91,18.57,62.81,23.99z"/>
								<path id="Trazado_705_1_" class="st2" d="M72.94,81.97c-2.67-0.08-4.07,2.16-6.21,3.02c0.12-0.02,0.24-0.03,0.36-0.03h0.2
									c0.09-0.04,0.18-0.08,0.27-0.12l0.13-0.04c3.72-0.39,7.47-0.14,11.1,0.75C78.36,83.4,76.22,82.06,72.94,81.97z"/>
								<path id="Trazado_706_1_" class="st2" d="M50.48,158.91c-6.5-10.21-8.25-21.65-9.52-33.23c-1.47,7.48-2.16,15.09-2.06,22.71
									c-2.48-7.57-3.42-15.56-2.76-23.51c-2.9,3.23-4.31,7.22-5.94,11.15c-0.76-3.71,1.76-15.84,4.95-23.94
									c3.04-7.72,6.94-14.9,13.42-20.55c-0.88,3.27-1.88,6.4-2.56,9.6c-1.62,8.36-2.07,16.9-1.35,25.38
									c0.72,10.85,2.67,21.58,5.82,31.98C50.49,158.64,50.5,158.77,50.48,158.91z"/>
								<path id="Trazado_707_1_" class="st2" d="M60.99,22.99"/>
								<path id="Trazado_708_1_" class="st2" d="M62.93,15.83"/>
								<path id="Trazado_709_1_" class="st2" d="M86.06,34.46"/>
								<g id="Grupo_41_1_" transform="translate(37.803)">
									<path id="Trazado_710_1_" class="st2" d="M24.13,20.71c0.23-0.55,0.48-1.09,0.71-1.61c-0.34,0.57-0.62,1.17-0.83,1.8
										C24.04,20.83,24.08,20.77,24.13,20.71z"/>
									<path id="Trazado_711_1_" class="st5" d="M53.79,15.21c1.24-0.76,2.55-1.37,3.93-1.82c1.47-1.27,1.87-2.46,1.57-3.47
										C58.6,8.48,57.32,7.41,55.78,7c-1.82-0.69-3.82-0.72-5.66-0.09c-2.01,0.74-3.53,2.54-3.52,5.88
										c0.11,2.6,0.51,5.18,1.18,7.69c0.21,0.91,0.43,1.79,0.65,2.58c0.17-1.46,0.68-2.87,1.5-4.09
										C50.93,17.45,52.25,16.16,53.79,15.21z M53.14,9.46c0.53-0.02,0.98,0.39,1.01,0.92v0.04c0.03,0.54-0.39,1.01-0.93,1.04
										c-0.54,0.03-1.01-0.39-1.04-0.93c0-0.01,0-0.02,0-0.03v-0.08C52.18,9.89,52.61,9.46,53.14,9.46L53.14,9.46L53.14,9.46z"/>
									<path id="Trazado_712_1_" class="st6" d="M58.93,23.7c0.01-0.29,0.01-0.59-0.01-0.88c-0.23-2.04-1.17-3.93-2.66-5.34
										c-0.32-0.31-0.66-0.59-1.01-0.86c-0.12,0.07-0.25,0.13-0.37,0.21c-1.32,0.81-2.45,1.9-3.31,3.2
										c-0.68,1.04-1.1,2.24-1.22,3.48c0.37,1.45,1.41,2.63,2.8,3.18c1.4,0.5,2.95,0.33,4.21-0.45c0.92-0.52,1.51-1.48,1.56-2.53
										L58.93,23.7z"/>
									<path id="Trazado_713_1_" class="st6" d="M68.4,14.66c-0.03-0.29-0.06-0.52-0.1-0.72c-3.8-0.23-7.6,0.35-11.15,1.73
										c0.16,0.15,0.33,0.3,0.48,0.45c1.83,1.71,2.98,4.02,3.22,6.51c0.03,0.38,0.04,0.76,0.03,1.14h0.01
										c0,0.06-0.01,0.11-0.02,0.17c-0.13,2.15-0.89,4.21-2.2,5.93c0.4-0.09,0.78-0.19,1.15-0.31c3.55-0.98,6.41-3.6,7.69-7.06
										C68.39,19.99,68.69,17.31,68.4,14.66z"/>
									<path id="Trazado_714_1_" class="st7" d="M61.58,3.76c-3.01-1.85-6.43-2.95-9.96-3.2c-4-0.3-8.01,0.42-11.66,2.08
										c-5.08,2.46-9.33,6.34-12.24,11.17c0.54-0.01,1.07,0.01,1.61,0.06c-1.09,0.16-2.06,0.77-2.67,1.68
										c-0.07,0.12-0.14,0.25-0.21,0.37c0.72-0.1,1.45-0.05,2.16,0.15c-1.63,0.43-3,1.53-3.77,3.02
										c-0.24,0.52-0.48,1.06-0.71,1.61c0.79-0.93,4.49-1.21,4.49-1.21c-4.61,1.39-5.42,3.55-5.42,3.55s10.57-5.69,19.18,3.38
										c2.22,2.48,4.2,5.17,5.92,8.03L46.45,24l-0.25-1.43l-0.36-1.67c-0.68-2.66-1.07-5.38-1.18-8.13
										c-0.01-4.32,2.06-6.67,4.75-7.71c2.29-0.76,4.77-0.73,7.04,0.09c2.13,0.61,3.86,2.16,4.71,4.2
										c0.32,1.06,0.22,2.19-0.28,3.18c2.34-0.44,4.73-0.63,7.11-0.56C67.06,8.48,64.75,5.51,61.58,3.76z"/>
								</g>
							</g>
						</g>
					</g>
				</g>
			</g>
		</g>
		<g id="Grupo_46_1_" transform="translate(2110.983 1175.968)">
			<g id="Grupo_45_1_">
				<path id="Trazado_715_1_" class="st2" d="M43.22,29.76l-5.03-7.41l-4.98,7.41H23.21l10.01-14.87L23.47,0.5h10.01l4.71,6.97
					L42.9,0.5h10.01l-9.69,14.39l10.01,14.87H43.22z"/>
				<path id="Trazado_716_1_" class="st2" d="M65.73,22.89h-4.11v6.86h-6.75V6.8h10.84c1.15,0,2.29,0.2,3.36,0.61
					c1.05,0.39,2.02,0.97,2.86,1.71c0.82,0.72,1.5,1.6,1.99,2.58c0.99,2.01,0.99,4.38,0,6.39c-0.49,0.96-1.15,1.82-1.97,2.53
					c-0.84,0.73-1.81,1.29-2.86,1.67C68.02,22.69,66.88,22.89,65.73,22.89z M65.51,12.37h-3.78v4.42h3.78
					c0.59,0.01,1.15-0.22,1.55-0.65c0.41-0.39,0.63-0.92,0.64-1.48c0-0.59-0.24-1.16-0.65-1.59C66.66,12.63,66.1,12.38,65.51,12.37
					L65.51,12.37z"/>
				<path id="Trazado_717_1_" class="st2" d="M78.14,29.76V6.81h6.57v17.14h12.16v5.82L78.14,29.76z"/>
				<path id="Trazado_718_1_" class="st2" d="M108.53,30.45c-1.66,0.01-3.3-0.31-4.83-0.95c-1.48-0.61-2.82-1.49-3.97-2.6
					c-1.13-1.1-2.04-2.42-2.67-3.87c-1.3-3.02-1.3-6.44,0-9.45c0.63-1.45,1.54-2.76,2.67-3.87c3.62-3.52,8.98-4.54,13.64-2.61
					c1.47,0.61,2.82,1.49,3.96,2.6c1.13,1.1,2.04,2.42,2.67,3.87c1.3,3.02,1.3,6.45,0,9.47c-0.63,1.45-1.53,2.76-2.67,3.87
					c-1.15,1.11-2.49,1.99-3.96,2.6C111.84,30.14,110.19,30.47,108.53,30.45z M108.55,12.45c-0.78,0-1.54,0.16-2.25,0.48
					c-0.68,0.3-1.29,0.73-1.81,1.27c-0.51,0.54-0.92,1.17-1.2,1.86c-0.59,1.43-0.59,3.04,0,4.48c0.29,0.69,0.69,1.33,1.2,1.88
					c0.51,0.55,1.12,0.98,1.81,1.29c1.44,0.62,3.06,0.62,4.5,0c0.68-0.3,1.3-0.74,1.81-1.29c1.58-1.71,2.04-4.18,1.19-6.35
					c-0.27-0.69-0.68-1.32-1.19-1.86c-0.51-0.54-1.13-0.97-1.81-1.27C110.1,12.61,109.33,12.45,108.55,12.45L108.55,12.45z"/>
				<path id="Trazado_719_1_" class="st2" d="M137.68,29.76l-3.7-7h-4.16v7h-6.87V6.81h12.23c0.57,0,1.14,0.08,1.69,0.23
					c0.58,0.15,1.15,0.36,1.69,0.63c0.54,0.26,1.04,0.58,1.51,0.95c0.45,0.36,0.85,0.78,1.19,1.25c0.4,0.58,0.71,1.21,0.93,1.88
					c0.21,0.66,0.32,1.36,0.32,2.06c0,1.1-0.26,2.18-0.78,3.15c-0.51,0.98-1.24,1.83-2.13,2.49l5.47,10.31L137.68,29.76z
					 M133.27,12.17h-3.45v4.39h3.45c0.6,0.01,1.18-0.23,1.6-0.65c0.44-0.4,0.68-0.97,0.68-1.56c0.01-0.59-0.24-1.15-0.68-1.55
					C134.44,12.39,133.87,12.16,133.27,12.17L133.27,12.17z"/>
				<path id="Trazado_720_1_" class="st2" d="M161.45,29.76l-1.17-3.1h-6.68l-1.17,3.1h-6.9l8.56-22.95h5.69l8.56,22.95H161.45z
					 M156.94,16.52l-1.49,4.46h2.99L156.94,16.52z"/>
			</g>
		</g>
	</g>
</g>
</svg>